<svg xmlns="http://www.w3.org/2000/svg" viewBox="0 0 126 126" fill="none"><g clip-path="url(#clip0_48_220)"><path d="M125.57 62.87C125.89 96.74 97.8103 126.35 61.4203 125.62C27.4603 124.94 -0.799662 96.85 0.0203376 61.26C0.810338 26.97 29.0803 0 62.8303 0C97.6003 0 125.9 28.58 125.56 62.87H125.57ZM62.7403 122.33C94.7903 122.44 122.21 96.73 122.35 62.96C122.48 30.33 96.3603 3.39 62.9503 3.27C29.8603 3.17 3.36034 29.91 3.28034 62.72C3.21034 95.3 29.5503 122.3 62.7403 122.34V122.33Z" fill="black"></path><path d="M62.7404 122.33C29.5504 122.29 3.21041 95.29 3.28041 62.71C3.36041 29.91 29.8604 3.17 62.9504 3.28C96.3604 3.39 122.48 30.34 122.35 62.97C122.22 96.73 94.7904 122.45 62.7404 122.34V122.33ZM60.8304 4.66C46.3704 4.95 32.2904 10.75 20.8904 22.6C10.1304 33.78 4.68041 47.31 4.69041 62.79C4.71041 78.71 10.4004 92.52 21.7004 103.84C33.0304 115.19 46.8604 120.92 62.8304 120.93C78.4104 120.94 91.9904 115.44 103.19 104.57C114.91 93.19 120.88 79.18 120.92 62.85C121 30.71 94.9404 4.71 60.8204 4.66H60.8304Z" fill="white"></path><path d="M60.8303 4.66C94.9503 4.7 121.01 30.71 120.93 62.85C120.89 79.18 114.92 93.19 103.2 104.57C92.0003 115.44 78.4102 120.94 62.8403 120.93C46.8603 120.92 33.0402 115.19 21.7102 103.84C10.4102 92.52 4.72025 78.71 4.70025 62.79C4.68025 47.31 10.1302 33.78 20.9002 22.6C32.2902 10.75 46.3803 4.95 60.8303 4.66ZM68.7002 90.58H69.8603C78.6603 90.58 87.4603 90.58 96.2603 90.58C96.5403 90.58 96.8203 90.58 97.1003 90.56C97.2103 90.56 97.3102 90.47 97.4603 90.4C97.4303 90.06 97.4003 89.71 97.3603 89.37C94.8802 89.26 92.4902 89.42 90.1702 89.28C87.8203 84.41 80.6702 67.7 80.4703 66.54H97.4303C97.3903 66 97.6003 65.58 97.2203 65.1H79.6503C74.1603 52.44 68.6903 39.86 63.2403 27.29H60.7803C58.1803 33.62 55.6103 39.89 53.0303 46.17C50.4403 52.48 47.8503 58.78 45.2403 65.14H41.0103C39.5703 65.14 38.1302 65.14 36.6902 65.14C35.2902 65.14 33.8903 65.12 32.4903 65.14C31.0703 65.16 29.6402 65.04 28.1302 65.22C28.1602 65.67 28.1802 66.05 28.2102 66.53C29.3802 66.53 30.4503 66.53 31.5303 66.53C32.6103 66.53 33.6903 66.53 34.7703 66.53C35.8903 66.53 37.0103 66.53 38.1303 66.53C39.2103 66.53 40.2902 66.53 41.3703 66.53C42.4303 66.53 43.4903 66.55 44.6603 66.56C41.5103 74.24 38.4202 81.76 35.3103 89.32C34.7903 89.32 34.3502 89.32 33.9202 89.32C32.1202 89.32 30.3202 89.32 28.5203 89.34C28.4202 89.34 28.3202 89.44 28.1402 89.52C28.1702 89.85 28.1902 90.18 28.2202 90.5C30.8002 90.71 44.1003 90.63 44.4202 90.35C44.4002 90.06 44.3802 89.72 44.3503 89.35C41.8602 89.24 39.4403 89.39 36.8703 89.26C40.0403 81.6 43.1603 74.09 46.2603 66.6H66.6803C67.8103 68.69 76.2503 88.39 76.4103 89.38C73.8803 89.38 71.3603 89.38 68.8503 89.38C68.8203 89.38 68.8003 89.44 68.7203 89.52V90.56L68.7002 90.58ZM31.8603 74.98C34.1303 74.92 35.6702 73.26 35.7003 71.19C35.7303 69.15 34.0103 67.45 31.9702 67.39C29.9302 67.34 28.1202 69.14 28.1302 71.2C28.1402 73.24 29.8503 74.97 31.8603 74.98ZM89.9902 71.21C89.9902 73.33 91.7103 75.02 93.8102 74.98C95.8603 74.94 97.4603 73.26 97.4603 71.17C97.4603 69.09 95.8302 67.43 93.7702 67.38C91.7103 67.34 89.9902 69.08 90.0003 71.21H89.9902Z" fill="black"></path><path d="M68.7003 90.58V89.54C68.7803 89.45 68.8004 89.4 68.8304 89.4C71.3404 89.4 73.8604 89.4 76.3904 89.4C76.2304 88.41 67.7904 68.71 66.6604 66.62H46.2404C43.1304 74.12 40.0203 81.62 36.8503 89.28C39.4103 89.41 41.8304 89.27 44.3304 89.37C44.3604 89.74 44.3804 90.08 44.4004 90.37C44.0904 90.65 30.7804 90.73 28.2004 90.52C28.1704 90.2 28.1504 89.87 28.1204 89.54C28.2904 89.45 28.4004 89.36 28.5004 89.36C30.3004 89.35 32.1004 89.34 33.9004 89.34C34.3404 89.34 34.7704 89.34 35.2904 89.34C38.4004 81.78 41.4904 74.26 44.6404 66.58C43.4704 66.57 42.4103 66.56 41.3503 66.55C40.2703 66.55 39.1904 66.55 38.1104 66.55C36.9904 66.55 35.8704 66.55 34.7504 66.55C33.6704 66.55 32.5904 66.55 31.5104 66.55C30.4404 66.55 29.3704 66.55 28.1904 66.55C28.1604 66.06 28.1304 65.69 28.1104 65.24C29.6204 65.06 31.0504 65.18 32.4704 65.16C33.8704 65.14 35.2703 65.16 36.6703 65.16C38.1103 65.16 39.5504 65.16 40.9904 65.16H45.2204C47.8304 58.8 50.4203 52.49 53.0103 46.19C55.5903 39.91 58.1603 33.64 60.7603 27.31H63.2204C68.6704 39.87 74.1404 52.46 79.6303 65.12H97.2003C97.5803 65.59 97.3804 66.02 97.4104 66.56H80.4503C80.6503 67.72 87.8004 84.43 90.1504 89.3C92.4704 89.44 94.8703 89.28 97.3403 89.39C97.3703 89.74 97.4004 90.08 97.4404 90.42C97.2803 90.49 97.1804 90.57 97.0804 90.58C96.8004 90.6 96.5203 90.6 96.2403 90.6C87.4403 90.6 78.6403 90.6 69.8403 90.6H68.6804L68.7003 90.58ZM56.2404 42.09C53.0704 49.82 49.9504 57.42 46.8204 65.06H66.1804C62.8703 57.4 59.5904 49.82 56.2504 42.09H56.2404Z" fill="white"></path><path d="M31.8599 74.98C29.8499 74.97 28.1399 73.24 28.1299 71.2C28.1199 69.14 29.9299 67.34 31.9699 67.39C33.9999 67.44 35.7199 69.15 35.6999 71.19C35.6699 73.26 34.1299 74.93 31.8599 74.98Z" fill="white"></path><path d="M89.9797 71.21C89.9797 69.09 91.6897 67.34 93.7497 67.38C95.8097 67.42 97.4397 69.09 97.4397 71.17C97.4397 73.26 95.8397 74.94 93.7897 74.98C91.6897 75.02 89.9797 73.33 89.9697 71.21H89.9797Z" fill="white"></path><path d="M56.2396 42.09C59.5896 49.83 62.8596 57.4 66.1696 65.06H46.8096C49.9496 57.42 53.0596 49.82 56.2296 42.09H56.2396Z" fill="black"></path></g><defs><clipPath id="clip0_48_220"><rect width="125.57" height="125.63" fill="white"></rect></clipPath></defs></svg>