<?xml version="1.0" encoding="UTF-8"?>
<svg width="164px" height="75px" viewBox="0 0 164 75" version="1.1" xmlns="http://www.w3.org/2000/svg" xmlns:xlink="http://www.w3.org/1999/xlink">
    <title>A245836D-033A-43DE-8870-BE71351841CB@1x</title>
    <defs>
        <linearGradient x1="62.8397765%" y1="0%" x2="37.1602235%" y2="100%" id="linearGradient-1">
            <stop stop-color="#6BBFAC" offset="0%"></stop>
            <stop stop-color="#4858A3" offset="49.1531906%"></stop>
            <stop stop-color="#6BBFAC" offset="100%"></stop>
        </linearGradient>
    </defs>
    <g id="Componentes" stroke="none" stroke-width="1" fill="none" fill-rule="evenodd">
        <g transform="translate(-863.000000, -130.000000)" id="Group">
            <g transform="translate(863.000000, 130.000000)" id="logo-EX24">
                <polygon id="Fill-1" fill="#242B2B" points="3.42732378e-15 18.5240861 3.42732378e-15 66.1789722 33.5486118 66.1789722 33.5486118 55.6505671 16.8784941 55.6505671 16.8784941 46.4382127 32.0899765 46.4382127 32.0899765 37.710719 16.8784941 37.710719 16.8784941 29.0524911 33.5486118 29.0524911 33.5486118 18.5240861"></polygon>
                <path d="M86.8015341,56.6590582 C92.3756047,51.6671089 96.5807576,47.4265013 99.4150635,43.9401215 C102.249369,40.4547038 103.666522,37.5580456 103.666522,35.2482228 C103.666522,33.7416911 103.205393,32.5882228 102.284099,31.7868557 C101.363769,30.9854886 100.123158,30.5843241 98.5641929,30.5843241 C95.6343812,30.5843241 92.58784,31.5040203 89.4236047,33.3405266 L85.9516282,22.8111595 C88.5486165,21.4931848 91.11184,20.5042228 93.6393694,19.8433114 C96.1668988,19.1852861 98.8236988,18.8543494 101.611699,18.8543494 C104.917746,18.8543494 107.811864,19.5027544 110.292122,20.7986025 C112.771416,22.0944506 114.672852,23.8607291 115.996428,26.097438 C117.318075,28.3360709 117.979864,30.8921722 117.979864,33.7647797 C117.979864,38.0515646 116.538593,42.0449316 113.657016,45.7419949 C110.77544,49.4409823 106.42944,52.9619949 100.619016,56.3059949 L117.69624,56.3059949 L117.69624,66.6227544 L86.8015341,66.6227544 L86.8015341,56.6590582 Z" id="Fill-2" fill="#4858A2"></path>
                <path d="M156.810529,19.3497924 L156.810529,45.3533367 L163.612671,45.3533367 L163.612671,55.1756152 L156.810529,55.1756152 L156.810529,66.6227544 L141.716741,66.6227544 L141.716741,55.1053873 L122.088835,55.1053873 L122.088835,45.212881 L140.937259,19.3497924 L156.810529,19.3497924 Z M141.716741,31.3616405 L132.505729,45.3533367 L141.716741,45.3533367 L141.716741,31.3616405 Z" id="Combined-Shape" fill="#4858A2"></path>
                <polygon id="Fill-6" fill="#242B2B" points="64.2482541 18.5241823 58.6220894 30.5764354 52.9959247 18.5241823 37.2287718 18.5241823 50.0786541 42.490157 36.8120188 66.1800304 52.5791718 66.1800304 76.7894306 18.5241823"></polygon>
                <polygon id="Fill-8" fill="#242B2B" points="60.0869953 57.2062582 64.6654894 66.1800304 80.7095129 66.1800304 67.91076 43.4444861"></polygon>
                <polygon id="Fill-11" fill="url(#linearGradient-1)" points="85.9514353 6.835601e-15 47.7587294 75.3679494 65.5469412 41.8740759 70.5904235 31.9219241"></polygon>
            </g>
        </g>
    </g>
</svg>