<?xml version="1.0" encoding="utf-8"?>
<!-- Generator: Adobe Illustrator 23.0.2, SVG Export Plug-In . SVG Version: 6.00 Build 0)  -->
<svg version="1.1" id="Layer_1" xmlns="http://www.w3.org/2000/svg" xmlns:xlink="http://www.w3.org/1999/xlink" x="0px" y="0px"
	 width="125.8px" height="147.4px" viewBox="0 0 125.8 147.4" style="enable-background:new 0 0 125.8 147.4;" xml:space="preserve"
	>
<style type="text/css">
	.st0{fill:#CC8B77;}
	.st1{fill:#AA1D26;}
	.st2{fill:#393B3D;}
</style>
<title>Recurso 1</title>
<g id="Capa_2">
	<g id="Capa_1-2">
		<path class="st0" d="M92.8,81.2c10.3,0,26.8,1.4,30.5-14.9c0.6-0.7,1.6-0.7,2.3-0.2c0.1,0.1,0.1,0.1,0.2,0.2
			c-0.4,3.3-1.4,8.5-2.6,15.2c-0.3,1.9-1.7,3.5-3.6,3.9c-11.2,2.9-15.9,2.1-27.8,1.9c-41.8-0.7-54-27.6-54-41S43,22,53.5,13.2
			S77.7,1.8,95.9,1.8c4.4,0,22.1,2.3,27.9,2.9c0.9,0.1,1.6,0.9,1.6,1.8c-0.2,5.7-1.2,12.1-0.8,18.2c0.1,1.1-0.8,2-1.8,2.1l0,0
			c-0.5,0.1-1-0.4-1.1-0.9c0,0,0,0,0,0c-1.2-11-7.7-18.4-26-18.7C66.5,6.7,57,19.7,55.9,38.2C53.9,73.2,85.6,81.2,92.8,81.2z"/>
		<path class="st1" d="M29.6,44c-0.3,18.5,0.6,35.3,0.6,35.3c0.2,1.5,1.4,4.7,3.6,5.3c1.2,0.3,7.1,0.8,9.4,0.9c0.6,0,1,0.4,1,1l0,0
			c0,0.5-0.4,0.9-0.9,0.9c0,0,0,0,0,0c-5.8-0.1-35.1-0.3-40-0.2c-0.6,0-1.1-0.4-1.1-1l0,0c0-0.5,0.4-0.9,0.9-0.9c0,0,0,0,0,0
			c1.8,0.1,3.5-0.1,5.3-0.5c2.2-0.5,3.8-2.5,3.8-4.8c0.7-5,0.5-70.8,0.5-70.8c0-2.8-1.1-3.9-2.4-4.7c-3.2-2-6.5-1.2-9.6-1.4
			C0.3,3,0,2.6,0,2.2V2c0-0.5,0.4-0.9,0.9-0.9c0,0,0.1,0,0.1,0c8,0.2,47.8,0.2,58.8,0c2.3,0,3-1.4,4.2-1c0.7,0.2,0.8,0.8,0.6,1.5
			c-1.8,5-1.2,12.2-1.6,14.6c-0.1,0.6-0.6,1.1-1.2,1l0,0c-0.7-0.1-1.2-0.6-1.2-1.3c-0.1-3.9-0.7-7.5-7.9-8.1L29.8,7.4
			c-0.4,0.4-0.3,14.6-0.3,30c0,0.5,0.4,1,1,1.1L55,38.3c2.9-0.3,3.7-1.5,4.3-2.5c0.2-0.4,0.6-0.6,1.1-0.6l0,0c0.6,0,1,0.4,1,1
			c0,0,0,0.1,0,0.1c-1,5.3-1.6,10.7-1.7,16.1c0,0.7-0.6,1.2-1.3,1.2c-0.1,0-0.1,0-0.2,0l0,0c-0.4,0-0.7-0.3-0.7-0.7
			c-0.3-4.1-1.1-7.4-6.1-8.4C49.2,44.1,40.9,44,29.6,44z"/>
		<path class="st1" d="M3.4,98.7H18v3.4H7.7v4.1h7.9v3.4H7.7v8.3H3.4V98.7z"/>
		<path class="st1" d="M25,116.9c-1.4-0.8-2.6-2-3.4-3.5c-1.7-3.3-1.7-7.1,0-10.4c0.8-1.5,2-2.7,3.4-3.5c1.5-0.9,3.3-1.3,5-1.2
			c1.7,0,3.4,0.4,4.9,1.2c1.4,0.8,2.6,2,3.4,3.5c1.7,3.3,1.7,7.1,0,10.4c-0.8,1.5-2,2.7-3.4,3.5C31.9,118.6,28.1,118.6,25,116.9
			L25,116.9z M34.3,113c2-2.8,2-6.7,0-9.5c-1.1-1.2-2.7-1.9-4.3-1.8c-1.7-0.1-3.3,0.6-4.4,1.8c-2,2.8-2,6.7,0,9.5
			c1.1,1.2,2.7,1.9,4.4,1.8C31.6,114.9,33.2,114.2,34.3,113L34.3,113z"/>
		<path class="st1" d="M43,98.7h7.7c1.9-0.1,3.7,0.4,5.3,1.5c1.3,1,2,2.6,1.9,4.3c0.1,1.2-0.3,2.3-0.9,3.3c-0.7,0.9-1.6,1.6-2.7,2
			l5.7,8h-4.3l-5-7.1h-3.9v7.1H43V98.7z M49.7,107.8c2.8,0,4.2-1,4.2-3.1c0-0.9-0.3-1.7-1-2.3c-0.9-0.6-2-0.9-3.1-0.8h-3v6.2H49.7z"
			/>
		<path class="st1" d="M66.4,117c-1.6-0.8-2.9-2-3.8-3.5c-0.9-1.6-1.4-3.4-1.4-5.2c-0.1-3.7,2-7.1,5.3-8.7c1.8-0.9,3.7-1.3,5.7-1.2
			c1.9,0,3.8,0.3,5.5,1.1l-1.8,2.8c-0.4-0.1-0.8-0.2-1.2-0.3c-0.8-0.2-1.7-0.3-2.6-0.3c-3.8,0.1-6.8,3.2-6.7,6.9
			c0,1.6,0.6,3.2,1.7,4.4c1.3,1.2,3.1,1.9,4.9,1.8c1.5,0,2.9-0.4,4.2-1.1l1.7,2.4c-1.7,1.3-3.8,2-6,2
			C70.1,118.2,68.1,117.8,66.4,117z"/>
		<path class="st1" d="M92.7,113.3h-7.9l-1.8,4.5h-3.9l7.7-19.1h3.8l7.7,19.1h-3.9L92.7,113.3z M91.5,110.2l-2.7-6.8l-2.8,6.8H91.5z
			"/>
		<path class="st1" d="M118.3,117.8l-1.5-10.3l-4.1,10.3h-3.4l-4.1-10.1l-1.4,10.1h-4l2.9-19.1h3.2l5.1,13.4l5.1-13.4h3.2l2.9,19.1
			L118.3,117.8z"/>
		<path class="st2" d="M15.3,137.3h-7l-1.6,4.5H3.4l6.8-19.1h3.3l6.8,19.1h-3.4L15.3,137.3z M14.2,134.2l-2.4-6.8l-2.4,6.8H14.2z"/>
		<path class="st2" d="M40.6,141.1c-1-0.6-1.8-1.5-2.3-2.6c-0.5-1.1-0.8-2.3-0.8-3.6c0-1.2,0.3-2.5,0.8-3.6c0.5-1.1,1.3-2,2.3-2.6
			c2.2-1.3,5-1.3,7.2,0c1,0.6,1.8,1.5,2.3,2.6c0.6,1.1,0.8,2.4,0.8,3.6c0,1.2-0.3,2.5-0.8,3.6c-0.5,1.1-1.3,1.9-2.3,2.6
			C45.6,142.4,42.9,142.4,40.6,141.1L40.6,141.1z M46.7,138.1c0.6-0.9,1-2,0.9-3.1c0.1-1.1-0.3-2.2-0.9-3.1
			c-1.1-1.4-3.2-1.6-4.6-0.4c-0.2,0.1-0.3,0.3-0.4,0.4c-0.7,0.9-1,2-0.9,3.2c-0.1,1.1,0.3,2.2,0.9,3.1c1.2,1.4,3.2,1.5,4.6,0.4
			C46.5,138.4,46.6,138.3,46.7,138.1L46.7,138.1z"/>
		<path class="st2" d="M54.5,143.5c1.2,1,2.8,1.5,4.3,1.5c2.3,0.1,3.5-0.5,3.5-1.6c0-0.4-0.2-0.9-0.6-1.1c-0.6-0.3-1.3-0.5-2-0.6
			l-3-0.4c-0.7-0.1-1.5-0.3-2.2-0.6c-0.7-0.3-1.2-1-1.2-1.8c0-0.4,0.1-0.8,0.4-1.1c0.3-0.3,0.6-0.6,1-0.7c-0.7-0.4-1.2-1.1-1.6-1.8
			c-0.4-0.7-0.5-1.5-0.5-2.4c0-0.9,0.2-1.8,0.7-2.6c0.5-0.8,1.1-1.4,1.9-1.8c0.9-0.5,2-0.7,3-0.7c1.1,0,2.2,0.3,3.1,0.8
			c0.3-0.6,0.8-1.2,1.4-1.6l2.2,2c0,0-1.1,0.6-2,1.1c0.6,0.8,0.8,1.8,0.8,2.8c0,0.9-0.2,1.8-0.7,2.6c-0.4,0.8-1.1,1.4-1.9,1.8
			c-0.9,0.5-2,0.7-3,0.7c-0.5,0-1-0.1-1.5-0.2c-0.2,0.1-0.3,0.2-0.3,0.4c0,0.2,0.2,0.5,0.4,0.5c0.5,0.2,0.9,0.3,1.4,0.3l2.4,0.3
			c3.1,0.4,4.7,1.6,4.7,3.7c0,1.3-0.7,2.5-1.8,3.1c-1.5,0.8-3.2,1.2-4.9,1.1c-1.6,0.1-3.2-0.3-4.6-1c-0.5-0.2-0.9-0.6-1.2-1
			L54.5,143.5z M60,135c0.9-1.2,0.9-2.8,0-4c-0.5-0.5-1.1-0.8-1.8-0.7c-0.7,0-1.4,0.2-1.8,0.7c-0.8,1.2-0.8,2.8,0,4
			c0.5,0.5,1.2,0.8,1.8,0.7C58.9,135.8,59.5,135.5,60,135z"/>
		<path class="st2" d="M67.7,141c-0.8-0.8-1.2-1.9-1.1-3c0-1.1,0.4-2.1,1.3-2.9c0.9-0.7,1.9-1.3,3-1.5c1.1-0.3,2.2-0.5,3.4-0.5
			c0-0.6-0.2-1.3-0.6-1.7c-0.5-0.4-1.2-0.6-1.8-0.5c-0.6,0-1.2,0.1-1.8,0.3c-0.7,0.2-1.4,0.5-2,0.8l-0.3-2.8c1.6-0.8,3.3-1.2,5-1.2
			c1.4-0.1,2.7,0.4,3.7,1.3c1,1.2,1.4,2.7,1.3,4.2v3.7c0,0.7,0.1,1.2,0.1,1.5c0.2,1,0.7,1.9,1.4,2.7l-0.9,0.5
			c-0.8,0.2-1.6,0.1-2.4-0.2c-0.5-0.3-0.9-0.7-1.2-1.2c-0.5,0.5-1.1,0.9-1.8,1.2c-0.8,0.3-1.6,0.4-2.4,0.4
			C69.5,142.1,68.5,141.7,67.7,141z M73.2,139.3c0.4-0.2,0.8-0.4,1.2-0.7v-3.1c-1,0-2,0.3-2.9,0.7c-0.7,0.3-1.2,1-1.3,1.8
			c0,0.5,0.1,0.9,0.4,1.2c0.4,0.3,0.9,0.4,1.4,0.4C72.4,139.5,72.8,139.4,73.2,139.3L73.2,139.3z"/>
		<path class="st2" d="M114.5,141.8c-0.8-0.2-1.5-0.4-2.2-0.8l1.2-2.4c0.4,0.2,0.8,0.4,1.3,0.6c0.7,0.2,1.4,0.3,2.1,0.3
			c1.4,0,2.1-0.4,2.1-1.4c0-0.4-0.2-0.9-0.6-1.1c-0.6-0.4-1.3-0.7-2-0.9c-1.1-0.3-2.1-0.9-3-1.7c-0.7-0.7-1-1.6-1-2.6
			c0-1.1,0.5-2.2,1.4-2.9c1.1-0.8,2.4-1.2,3.7-1.1c1.5,0,2.9,0.4,4.2,1.1l-1.4,2.2c-0.3-0.1-0.6-0.3-0.8-0.4
			c-0.6-0.3-1.3-0.4-1.9-0.4c-0.5,0-0.9,0.1-1.3,0.4c-0.3,0.2-0.5,0.6-0.5,1c0,0.3,0.1,0.6,0.3,0.9c0.2,0.2,0.5,0.4,0.8,0.6
			c0.3,0.2,0.9,0.4,1.7,0.7c1.1,0.4,2,0.9,2.9,1.7c0.6,0.7,0.9,1.6,0.9,2.4c0.1,1.2-0.5,2.3-1.4,3c-1.2,0.8-2.6,1.2-4,1.1
			C116,142,115.3,142,114.5,141.8z"/>
		<path class="st2" d="M34.5,131.4c-0.4-1-1.1-1.9-2-2.6c-0.9-0.7-2.1-1-3.2-1c-1.3,0-2.6,0.4-3.6,1.2v-7.8l-3.3,0.9v19.6H25
			l0.7-0.9c1.1,0.8,2.3,1.2,3.6,1.1c1.1,0,2.3-0.3,3.2-0.9c0.9-0.7,1.6-1.5,2-2.6C35.5,136.2,35.5,133.7,34.5,131.4L34.5,131.4z
			 M25.7,138.4v-7.1c3.3-1.9,6.6-0.3,6.6,3.6C32.3,141.6,25.6,138.5,25.7,138.4L25.7,138.4z"/>
		<path class="st2" d="M100,141.1c-1-0.6-1.8-1.5-2.3-2.6c-0.5-1.1-0.8-2.3-0.8-3.6c0-1.2,0.3-2.5,0.8-3.6c0.5-1.1,1.3-2,2.3-2.6
			c2.2-1.3,5-1.3,7.2,0c1,0.6,1.8,1.5,2.3,2.6c0.5,1.1,0.8,2.3,0.8,3.6c0,1.2-0.3,2.5-0.8,3.6c-0.5,1.1-1.3,1.9-2.3,2.6
			C105,142.4,102.2,142.4,100,141.1z M106.1,138.1c0.6-0.9,1-2,0.9-3.1c0.1-1.1-0.3-2.2-0.9-3.1c-1.1-1.4-3.2-1.6-4.6-0.4
			c-0.2,0.1-0.3,0.3-0.4,0.4c-0.6,0.9-1,2-0.9,3.1c-0.1,1.1,0.3,2.2,0.9,3.1c1.2,1.4,3.2,1.5,4.6,0.4
			C105.8,138.4,106,138.3,106.1,138.1L106.1,138.1z"/>
		<path class="st2" d="M91.2,122.1v7c-1-0.8-2.3-1.2-3.6-1.2c-1.2,0-2.3,0.3-3.2,1c-0.9,0.7-1.6,1.5-2,2.6c-0.9,2.3-0.9,4.8,0,7.1
			c0.4,1,1.1,1.9,2,2.6c1,0.6,2.1,1,3.2,0.9c1.4,0,2.8-0.4,4-1.2l0.4,0.9h2.6v-20.5L91.2,122.1z M91.3,138.5c0,0-6.6,3.2-6.6-3.5
			c0-3.8,3.3-5.4,6.6-3.6V138.5z"/>
	</g>
</g>
</svg>
