<svg width="292" height="75" viewBox="0 0 292 75" fill="none" xmlns="http://www.w3.org/2000/svg">
<g clip-path="url(#clip0_114_367)">
<path d="M103.478 20.7383L107.534 31.3044L111.665 20.7383H114.651L118.747 31.3044L122.803 20.7383H127.586L119.812 39.3973H117.866L113.158 28.2079L108.445 39.3973H106.539L98.6953 20.7383H103.478Z" fill="#2E56A3"/>
<path d="M136.166 20.3894C138.412 20.3894 140.126 20.888 141.307 21.8853C141.901 22.4011 142.37 23.0461 142.678 23.7711C142.986 24.4961 143.125 25.282 143.084 26.0688V35.0443C143.084 35.7374 143.352 36.0865 143.89 36.0865C144.221 36.0523 144.542 35.9487 144.83 35.7823C145.204 35.6028 145.548 35.3674 145.851 35.0842V37.8666C144.242 38.8971 142.772 39.414 141.441 39.4174C140.781 39.458 140.123 39.3074 139.545 38.9835C139.049 38.6156 138.715 38.0682 138.614 37.4577C137.114 38.6722 135.257 39.3606 133.329 39.4174C132.727 39.4255 132.129 39.3118 131.571 39.083C131.014 38.8543 130.508 38.5152 130.084 38.086C129.651 37.6754 129.307 37.1795 129.074 36.6295C128.841 36.0795 128.724 35.4872 128.73 34.8897C128.694 34.2073 128.794 33.5244 129.024 32.8812C129.255 32.2381 129.612 31.6477 130.074 31.145C130.977 30.2341 132.548 29.438 134.787 28.7565L138.505 27.6196V26.7769C138.505 24.9851 137.471 24.0909 135.404 24.0942C134.307 24.103 133.225 24.364 132.244 24.8572C131.148 25.4062 130.174 26.173 129.382 27.111V22.7778C131.285 21.1925 133.692 20.3448 136.166 20.3894ZM133.364 34.1418C133.35 34.4379 133.398 34.7337 133.503 35.0108C133.608 35.2878 133.769 35.5402 133.976 35.7524C134.171 35.9498 134.404 36.1055 134.66 36.2101C134.917 36.3147 135.192 36.3659 135.469 36.3607C136.464 36.3607 137.485 35.8621 138.495 34.9097V30.0879C137.455 30.4391 136.445 30.8726 135.474 31.3843C134.868 31.6917 134.325 32.1094 133.872 32.6159C133.527 33.048 133.347 33.5889 133.364 34.1418Z" fill="#2E56A3"/>
<path d="M153.162 15.8816H153.54V20.7383H159.512V24.3883H153.54V32.8303C153.507 33.5629 153.763 34.2791 154.252 34.8248C154.502 35.0832 154.805 35.2849 155.14 35.4165C155.475 35.5481 155.833 35.6065 156.193 35.5877C157.511 35.5107 158.786 35.0933 159.895 34.376V38.2355C158.441 38.9587 156.846 39.3536 155.222 39.3923C153.251 39.3923 151.715 38.8305 150.614 37.7069C149.512 36.5833 148.961 35.0608 148.961 33.1394V24.3883H146.224V23.6005L153.162 15.8816Z" fill="#2E56A3"/>
<path d="M170.317 20.3894C172.885 20.3894 174.917 21.2503 176.413 22.9723C177.91 24.6943 178.656 27.0794 178.653 30.1277V30.8508H166.3C166.389 32.2841 167.013 33.6316 168.047 34.6254C169.023 35.5097 170.365 35.9502 172.074 35.9468C173.159 35.9495 174.234 35.7465 175.244 35.3485C176.368 34.8879 177.426 34.2792 178.389 33.5384V37.1236C176.228 38.677 173.617 39.4759 170.959 39.3974C169.716 39.4437 168.477 39.2364 167.317 38.7881C166.157 38.3398 165.1 37.6598 164.21 36.7895C162.468 35.0543 161.596 32.7423 161.592 29.8535C161.592 27.0711 162.4 24.7973 164.016 23.0321C164.813 22.1618 165.79 21.4748 166.877 21.0186C167.965 20.5624 169.138 20.3477 170.317 20.3894ZM174.338 27.9337C174.287 26.7958 173.881 25.7026 173.178 24.8073C172.846 24.4305 172.433 24.1336 171.97 23.9385C171.508 23.7435 171.007 23.6552 170.506 23.6804C169.991 23.6575 169.477 23.7413 168.995 23.9266C168.514 24.1119 168.076 24.3948 167.709 24.7574C166.932 25.6428 166.463 26.7579 166.375 27.9337H174.338Z" fill="#2E56A3"/>
<path d="M192.245 20.3892C192.87 20.3915 193.487 20.5383 194.046 20.818C194.793 21.2128 195.487 21.7003 196.112 22.269L194.469 26.4825C193.135 25.4354 192.06 24.9118 191.254 24.9118C190.477 24.9372 189.732 25.2334 189.149 25.7495C188.428 26.3415 187.858 27.097 187.487 27.9535C187.082 28.8112 186.868 29.7471 186.86 30.696V39.0432H182.261V20.7382H186.885V25.4055H186.959C187.563 23.9855 188.418 22.6865 189.482 21.5709C190.217 20.8348 191.206 20.4114 192.245 20.3892Z" fill="#2E56A3"/>
<path d="M200.75 20.7383L204.801 31.3044L208.932 20.7383H211.918L216.014 31.3044L220.07 20.7383H224.853L217.079 39.3973H215.138L210.425 28.2079L205.717 39.3973H203.806L195.952 20.7383H200.75Z" fill="#2E56A3"/>
<path d="M231.756 11.6682V23.3064H231.87C233.353 21.3617 235.14 20.3894 237.23 20.3894C238.072 20.3581 238.91 20.514 239.685 20.846C240.459 21.1779 241.15 21.6776 241.709 22.3091C242.886 23.7074 243.493 25.4984 243.411 27.3254V39.0434H238.833V28.2429C238.887 27.2019 238.595 26.1723 238.002 25.3159C237.738 24.9645 237.393 24.6821 236.997 24.4929C236.601 24.3036 236.166 24.213 235.727 24.2289C235.015 24.2276 234.319 24.4471 233.736 24.8572C232.967 25.4385 232.295 26.1387 231.746 26.9315V39.0434H227.147V11.6682H231.756Z" fill="#2E56A3"/>
<path d="M254.146 20.3894C256.389 20.3894 258.103 20.888 259.287 21.8853C259.882 22.4011 260.351 23.0461 260.659 23.7711C260.967 24.4961 261.105 25.282 261.064 26.0688V35.0443C261.064 35.7374 261.333 36.0865 261.87 36.0865C262.202 36.0523 262.522 35.9487 262.811 35.7823C263.184 35.6028 263.528 35.3674 263.831 35.0842V37.8666C262.224 38.8988 260.751 39.4174 259.422 39.4174C258.761 39.458 258.103 39.3074 257.526 38.9835C257.029 38.6156 256.695 38.0682 256.595 37.4577C255.094 38.6722 253.238 39.3606 251.309 39.4174C250.707 39.4255 250.109 39.3118 249.552 39.083C248.994 38.8543 248.488 38.5152 248.065 38.086C247.631 37.6754 247.288 37.1795 247.055 36.6295C246.822 36.0795 246.705 35.4872 246.711 34.8897C246.674 34.2073 246.774 33.5244 247.005 32.8812C247.236 32.2381 247.593 31.6477 248.055 31.145C248.95 30.2341 250.521 29.438 252.768 28.7565L256.485 27.6196V26.7769C256.485 24.9851 255.452 24.0909 253.385 24.0942C252.287 24.103 251.206 24.364 250.225 24.8572C249.128 25.4062 248.154 26.173 247.363 27.111V22.7778C249.265 21.1925 251.672 20.3448 254.146 20.3894ZM251.344 34.1418C251.331 34.4375 251.378 34.7328 251.482 35.0097C251.587 35.2866 251.746 35.5393 251.951 35.7524C252.147 35.9489 252.38 36.104 252.636 36.2085C252.893 36.313 253.168 36.3648 253.445 36.3607C254.44 36.3607 255.46 35.8621 256.47 34.9097V30.0879C255.431 30.4391 254.421 30.8726 253.45 31.3843C252.843 31.6929 252.298 32.1103 251.842 32.6159C251.503 33.0504 251.327 33.5905 251.344 34.1418Z" fill="#2E56A3"/>
<path d="M271.102 11.6682V39.0434H266.514V11.6682H271.102Z" fill="#2E56A3"/>
<path d="M283.664 20.3892C286.227 20.3892 288.262 21.2469 289.755 22.9722C291.248 24.6974 292 27.0809 292 30.1276V30.8506H279.643C279.736 32.2828 280.359 33.6286 281.389 34.6253C282.385 35.5096 283.728 35.95 285.421 35.9467C286.504 35.9489 287.578 35.7459 288.586 35.3483C289.711 34.8868 290.77 34.2782 291.736 33.5383V37.1235C289.572 38.678 286.958 39.4769 284.296 39.3973C283.054 39.4435 281.816 39.2361 280.657 38.7878C279.497 38.3395 278.441 37.6595 277.552 36.7894C275.807 35.0541 274.934 32.7421 274.934 29.8534C274.934 27.071 275.741 24.7972 277.353 23.032C278.152 22.1611 279.13 21.474 280.219 21.0178C281.309 20.5616 282.484 20.3471 283.664 20.3892ZM287.68 27.9336C287.631 26.7952 287.225 25.7013 286.521 24.8071C286.188 24.4301 285.775 24.133 285.313 23.9379C284.85 23.7428 284.349 23.6547 283.848 23.6802C283.334 23.6571 282.82 23.7409 282.34 23.9262C281.859 24.1116 281.422 24.3945 281.056 24.7573C280.277 25.642 279.807 26.7571 279.717 27.9336H287.68Z" fill="#2E56A3"/>
<path d="M104.14 62.2H102.035V55.1842C102.025 54.9303 102.08 54.678 102.194 54.4512H100.736C100.853 54.677 100.91 54.9297 100.9 55.1842V62.6039C100.909 62.8551 100.853 63.1045 100.736 63.3269H104.882L105.051 61.9706C104.776 62.134 104.459 62.2137 104.14 62.2Z" fill="#2E56A3"/>
<path d="M116.617 62.6039L113.228 54.4612H112.178L108.943 62.6139C108.845 62.8677 108.72 63.1102 108.569 63.3369H109.993C109.988 63.0906 110.028 62.8454 110.112 62.6139L111.108 60.1207H114.387L115.412 62.6139C115.504 62.8437 115.548 63.0897 115.542 63.3369H117.035C116.87 63.1078 116.73 62.8622 116.617 62.6039ZM111.521 59.0038L112.665 56.1067L113.875 59.0038H111.521Z" fill="#2E56A3"/>
<path d="M129.85 54.4612C129.855 54.7085 129.825 54.9553 129.761 55.1942L128.049 60.9883L126.113 54.4612H125.018L123.146 60.9435L121.275 55.1742C121.213 54.9419 121.184 54.7017 121.191 54.4612H119.673C119.821 54.6872 119.935 54.9343 120.011 55.1942L122.624 63.3369H123.619L125.555 56.6951L127.461 63.3369H128.501L130.92 55.1942C130.99 54.933 131.103 54.6853 131.254 54.4612H129.85Z" fill="#2E56A3"/>
<path d="M143.273 58.3256V55.5831H145.577C145.901 55.5639 146.222 55.6458 146.498 55.8174L146.443 54.4512H141.964C142.082 54.6766 142.137 54.9299 142.123 55.1842V62.6039C142.136 62.8549 142.081 63.1048 141.964 63.3269H143.427C143.314 63.1031 143.26 62.8545 143.268 62.6039V59.4475H145.612C145.855 59.4369 146.097 59.4957 146.309 59.6171V58.1511C146.097 58.2725 145.855 58.3312 145.612 58.3206L143.273 58.3256Z" fill="#2E56A3"/>
<path d="M162.911 62.5091C162.414 61.7612 161.786 60.719 161.174 59.8813C161.048 59.7048 160.908 59.5381 160.756 59.3827C161.238 59.2159 161.653 58.8967 161.939 58.4731C162.224 58.0495 162.365 57.5445 162.339 57.0341C162.351 56.6928 162.292 56.3527 162.168 56.035C162.043 55.7172 161.854 55.4285 161.613 55.1868C161.372 54.9451 161.085 54.7555 160.768 54.6298C160.451 54.5041 160.112 54.445 159.771 54.4562H157.322C157.44 54.6816 157.495 54.9349 157.482 55.1892V62.6089C157.495 62.8599 157.44 63.1098 157.322 63.3319H158.785C158.673 63.1081 158.618 62.8594 158.626 62.6089V59.5423C158.829 59.5381 159.032 59.5632 159.228 59.617C159.571 59.7613 159.864 60.0042 160.069 60.3151C160.567 61.098 161.09 61.8709 161.602 62.6637C161.734 62.8683 161.828 63.0945 161.881 63.3319H163.573C163.315 63.0901 163.092 62.8131 162.911 62.5091ZM159.378 58.4851C159.125 58.4896 158.872 58.4611 158.626 58.4004V55.5681H159.547C160.617 55.5681 161.144 56.2014 161.144 57.0391C161.144 57.8768 160.617 58.4851 159.378 58.4851Z" fill="#2E56A3"/>
<path d="M176.279 63.3269C176.171 63.1015 176.116 62.854 176.12 62.6039L175.936 55.1842C175.92 55.0494 175.936 54.913 175.983 54.7857C176.03 54.6584 176.105 54.5438 176.204 54.4512H174.856L172.263 60.0509L169.645 54.4611H168.286C168.408 54.5874 168.498 54.7412 168.548 54.9096C168.598 55.0779 168.608 55.2559 168.575 55.4285L168.411 62.6139C168.417 62.8642 168.362 63.1123 168.251 63.3369H169.675C169.548 63.1183 169.492 62.8656 169.515 62.6139L169.63 57.1289L171.86 61.8809H172.671L174.871 57.1089L175.005 62.5939C175.013 62.8445 174.958 63.0931 174.846 63.3169L176.279 63.3269Z" fill="#2E56A3"/>
<path d="M151.345 55.1842C151.355 54.9303 151.3 54.678 151.186 54.4512H152.644C152.53 54.678 152.475 54.9303 152.485 55.1842V62.5989C152.475 62.8528 152.53 63.1051 152.644 63.3319H151.186C151.3 63.1051 151.355 62.8528 151.345 62.5989V55.1842Z" fill="#2E56A3"/>
<path d="M31.991 51.3645C31.9214 51.4543 31.8567 51.534 31.787 51.6388L31.991 51.3645Z" fill="#2E56A3"/>
<path d="M37.8238 6.73843e-05C28.6496 -0.0172578 19.7818 3.30682 12.8719 9.35324C5.96191 15.3997 1.48089 23.7563 0.263288 32.8668C-0.954318 41.9773 1.1745 51.2207 6.25328 58.8756C11.3321 66.5304 19.0146 72.0749 27.8702 74.4765C28.6117 74.661 29.3632 74.8505 30.1197 75.0001C26.3423 60.2953 36.2014 48.667 39.4015 47.4205C38.3115 50.5868 37.9681 60.7141 45.0452 67.0717C47.4092 69.1959 51.0174 70.637 55.1631 71.6093C55.7404 71.3102 56.2878 71.021 56.8303 70.7018C64.0144 66.5062 69.62 60.0574 72.7812 52.3515C75.9425 44.6456 76.4836 36.1112 74.3209 28.0664C72.1583 20.0216 67.4122 12.914 60.8157 7.84134C54.2192 2.76862 46.1393 0.0130077 37.8238 6.73843e-05ZM60.3091 45.376C56.3575 47.939 50.7337 48.3679 41.6261 44.6131C37.8338 43.0474 33.4343 50.0183 33.4641 49.8388C35.7485 38.3702 18.1554 33.7129 22.6296 18.4247C24.2072 13.0295 25.3917 12.6555 25.9591 12.6006C26.5264 12.5458 27.0291 12.9098 26.6459 13.942C26.0487 15.5476 26.1482 20.2248 32.414 23.81C41.3723 28.936 39.496 35.7075 39.496 35.7075C40.3618 34.6861 41.5462 33.9873 42.8576 33.7239C44.1689 33.4606 45.5306 33.6482 46.7224 34.2564C52.1969 36.8843 57.6714 38.5397 60.4484 38.6045C61.4072 38.641 62.3631 38.4787 63.2563 38.1277C64.1496 37.7768 64.9608 37.2448 65.6393 36.5651C66.1817 36.0665 66.6993 36.8095 66.4604 37.6073C66.2215 38.4051 65.047 42.3194 60.3091 45.396V45.376Z" fill="#2E56A3"/>
</g>
<defs>
<clipPath id="clip0_114_367">
<rect width="292" height="75" fill="white"/>
</clipPath>
</defs>
</svg>
